Coordinates
version=1
nRows=32
nColumns=12
inDegrees=yes

Units are S.I. units (second, meters, Newtons, ...)
Angles are in degrees

endheader
time	SC_y	SC_z	SC_x	AC_y	AC_z	AC_x	GH_y	GH_z	GH_yy	EL_x	PS_y
       0.0              -56.05          10.64          81.05          47.39         -17.91         -19.19          119.0           16.9          76.75          122.9          25.99
   0.04316              -56.05          10.64          81.04          47.39         -17.91         -19.19          118.9           16.9          76.71          122.9          25.99
   0.08633              -56.05          10.64          81.04          47.39         -17.91         -19.19          118.9          16.91          76.67          122.9          25.99
    0.1295              -56.06          10.64          81.03          47.39         -17.91         -19.18          118.8          16.92          76.64          122.9          25.99
    0.1727              -56.06          10.64          81.03          47.39         -17.91         -19.18          118.8          16.93          76.59          122.9           26.0
    0.2158              -56.06          10.64          81.02          47.39         -17.91         -19.18          118.7          16.94          76.55          122.9           26.0
     0.259              -56.06          10.64          81.02          47.39         -17.91         -19.17          118.7          16.95           76.5          122.9           26.0
    0.3021              -56.06          10.65          81.01          47.39         -17.91         -19.17          118.6          16.96          76.45          122.9          26.01
    0.3453              -56.06          10.65           81.0          47.39         -17.91         -19.16          118.6          16.97           76.4          122.9          26.01
    0.3885              -56.06          10.65          80.99          47.39         -17.91         -19.16          118.5          16.98          76.34          122.9          26.01
    0.4316              -56.06          10.65          80.99          47.39         -17.91         -19.15          118.4          16.99          76.28          122.9          26.02
    0.4748              -56.06          10.65          80.98          47.39         -17.91         -19.15          118.4          17.01          76.21          122.9          26.02
     0.518              -56.06          10.66          80.97          47.39         -17.91         -19.14          118.3          17.02          76.14          122.9          26.03
    0.5611              -56.06          10.66          80.96          47.39         -17.91         -19.13          118.2          17.04          76.06          122.9          26.03
    0.6043              -56.07          10.66          80.95          47.39         -17.91         -19.13          118.1          17.06          75.98          122.9          26.04
    0.6475              -56.07          10.66          80.93          47.39         -17.91         -19.12          118.0          17.07          75.88          122.9          26.04
    0.6906              -56.07          10.67          80.92          47.39         -17.91         -19.11          117.9          17.09          75.78          122.9          26.05
    0.7338              -56.07          10.67          80.91          47.39         -17.91          -19.1          117.7          17.12          75.68          122.9          26.06
    0.7769              -56.07          10.67          80.89          47.38         -17.91         -19.09          117.6          17.14          75.56          122.9          26.06
    0.8201              -56.07          10.68          80.87          47.38          -17.9         -19.08          117.4          17.17          75.43          122.9          26.07
    0.8633              -56.08          10.68          80.86          47.38          -17.9         -19.07          117.3           17.2          75.28          122.9          26.08
    0.9064              -56.08          10.69          80.84          47.38          -17.9         -19.05          117.1          17.23          75.13          122.9          26.09
    0.9496              -56.08          10.69          80.81          47.38          -17.9         -19.04          116.9          17.27          74.95          122.9           26.1
    0.9928              -56.08           10.7          80.79          47.38          -17.9         -19.02          116.7          17.31          74.76          122.9          26.11
     1.036              -56.09           10.7          80.76          47.38          -17.9         -19.01          116.4          17.35          74.55          122.9          26.13
     1.079              -56.09          10.71          80.73          47.37          -17.9         -18.99          116.2           17.4          74.31          122.9          26.14
     1.122              -56.09          10.72          80.69          47.37          -17.9         -18.96          115.9          17.45          74.04          122.9          26.16
     1.165               -56.1          10.73          80.65          47.37          -17.9         -18.94          115.5          17.52          73.74          122.9          26.18
     1.209               -56.1          10.74          80.61          47.37         -17.89         -18.91          115.1          17.59          73.41          122.9           26.2
     1.252              -56.11          10.75          80.56          47.37         -17.89         -18.88          114.7          17.67          73.02          122.9          26.23
     1.295              -56.12          10.76           80.5          47.36         -17.89         -18.84          114.2          17.76          72.58          122.9          26.25
     1.338              -56.12          10.78          80.43          47.36         -17.89         -18.79          113.6          17.86          72.08          122.9          26.29
